<svg width="100" height="100" viewBox="0 0 100 100" fill="none" xmlns="http://www.w3.org/2000/svg">
<rect width="100" height="100" rx="50" fill="white"/>
<rect x="0.35" y="0.35" width="99.3" height="99.3" rx="49.65" stroke="#00506C" stroke-opacity="0.8" stroke-width="0.7"/>
<path d="M53.3535 45.317C54.8555 42.8787 56.8494 40.9851 59.5167 39.9475C64.3073 38.1317 69.0462 38.469 73.5262 40.8295C76.9962 42.6452 78.4722 45.9396 79.2491 49.597C79.8706 52.4244 80 55.3037 80 58.183C80 65.1348 80 72.0867 80 79.0385C80 79.7907 79.8188 79.9982 79.0419 79.9982C75.546 79.9463 72.076 79.9463 68.5801 79.9982C67.8032 79.9982 67.5702 79.8426 67.5702 79.0125C67.5961 72.5795 67.5702 66.1465 67.5702 59.7135C67.5702 57.7421 67.4666 55.7707 66.871 53.8771C66.0941 51.4387 64.4368 50.0899 61.8732 49.8824C57.2896 49.4933 54.4411 51.8278 53.8455 56.4191C53.6643 57.8458 53.6384 59.2466 53.6384 60.6732C53.6384 66.7431 53.6384 72.8389 53.6384 78.9088C53.6384 79.7129 53.5348 80.0242 52.6025 79.9982C49.1066 79.9204 45.6366 79.9463 42.1407 79.9982C41.338 79.9982 41.2085 79.7648 41.2085 79.0385C41.2085 66.3021 41.2085 53.5658 41.2085 40.8035C41.2085 40.1291 41.3121 39.8697 42.0889 39.8697C45.4813 39.9216 48.8736 39.9216 52.2659 39.8697C52.9651 39.8697 53.1205 40.0772 53.0946 40.7516C53.0428 42.2561 53.0946 43.7606 53.0946 45.2651C53.1722 45.2651 53.2499 45.317 53.3276 45.3429L53.3535 45.317Z" fill="#0092C5"/>
<path d="M33.3879 59.921C33.3879 66.3021 33.3879 72.6573 33.3879 79.0385C33.3879 79.7648 33.2325 80.0242 32.4556 79.9982C28.9338 79.9463 25.412 79.9463 21.8902 79.9982C21.0875 79.9982 20.958 79.7388 20.958 79.0125C20.958 66.2762 20.958 53.5398 20.958 40.7776C20.958 40.0772 21.1134 39.8438 21.8644 39.8438C25.412 39.8956 28.9597 39.8956 32.5074 39.8438C33.2843 39.8438 33.3879 40.1031 33.3879 40.7776C33.3879 47.1587 33.3879 53.5139 33.3879 59.895V59.921Z" fill="#0092C5"/>
<path d="M34.3722 27.2112C34.3722 31.2059 31.1352 34.3965 27.1732 34.3965C23.2371 34.3705 19.9743 31.0503 20.0002 27.1334C20.026 23.1646 23.263 20 27.2509 20C31.2647 20 34.3981 23.1906 34.3722 27.2112Z" fill="#0092C5"/>
</svg>
