<svg width="200" height="200" viewBox="0 0 200 200" fill="none" xmlns="http://www.w3.org/2000/svg">
<path d="M99.8993 142.784C91.4513 142.784 83.0033 142.763 74.5764 142.805C73.3937 142.805 72.9924 142.489 73.1402 141.331C73.5838 137.878 71.9786 135.751 69.043 133.877C52.6327 123.518 43.0865 108.695 41.2701 89.3659C38.7569 62.6253 53.9633 38.264 79.265 28.8311C114.726 15.6082 151.833 38.0956 158.064 73.5321C162.351 97.8934 151.686 121.328 130.735 134.109C127.989 135.793 126.51 137.857 126.891 141.036C127.06 142.552 126.511 142.826 125.074 142.826C116.69 142.763 108.284 142.784 99.8993 142.784ZM82.0106 81.2595C79.0961 81.2174 77.0474 82.5018 76.2449 84.5021C75.3578 86.755 75.8014 88.7763 77.5121 90.4818C82.602 95.5773 87.713 100.652 92.803 105.747C96.0132 108.948 99.1178 108.779 102.054 105.305C106.784 99.7252 111.515 94.1666 116.246 88.5868C121.083 82.8808 125.94 77.1958 130.756 71.4687C133.48 68.2051 132.002 63.5307 127.968 62.6464C125.518 62.0989 123.68 63.1938 122.118 65.0467C114.05 74.6059 105.94 84.102 97.8929 93.6823C97.1115 94.6087 96.7313 94.6087 95.9076 93.7665C92.4017 90.166 88.7902 86.6497 85.242 83.0913C84.1649 81.9754 82.8766 81.2806 82.0106 81.2595Z" fill="black"/>
<path d="M99.984 153.501C108.432 153.501 116.859 153.543 125.307 153.459C126.764 153.438 126.912 153.964 126.806 155.165C125.856 166.282 116.627 174.894 105.454 174.894C100.66 174.894 95.8445 175.273 91.0502 174.599C81.5462 173.251 73.5628 164.387 73.1616 154.849C73.1193 153.733 73.415 153.48 74.5132 153.48C82.9824 153.522 91.4937 153.501 99.984 153.501Z" fill="#010101"/>
</svg>
